<svg width="480" height="54" viewBox="0 0 480 54" fill="none" xmlns="http://www.w3.org/2000/svg">
<g clip-path="url(#clip0_38_35)">
<path d="M25.2782 12.6787H12.5139V25.4412H25.2782V12.6787Z" fill="white"/>
<path d="M12.5139 25.4414H5.6355V32.3198H12.5139V25.4414Z" fill="white"/>
<path d="M5.6355 32.3208H0V37.9607H5.6355V32.3208Z" fill="white"/>
<path d="M17.0731 32.3208H12.5139V36.8808H17.0731V32.3208Z" fill="white"/>
<path d="M5.67561 17.5273H2.60962V20.5959H5.67561V17.5273Z" fill="white"/>
<path d="M2.61025 20.5952H1.07812V22.1286H2.61025V20.5952Z" fill="white"/>
<path d="M12.5139 4.71875H4.55908V12.6788H12.5139V4.71875Z" fill="white"/>
<path d="M4.5588 2.77441H2.60962V4.71862H4.5588V2.77441Z" fill="white"/>
<path d="M17.2344 0H12.5139V4.71879H17.2344V0Z" fill="white"/>
<path d="M63.2875 5.93209C60.9621 3.60671 57.2324 2.44141 52.0871 2.44141H25.2781V12.7233H49.1485C52.0871 12.7233 53.5559 14.1921 53.5559 17.1298V24.4758C53.5559 27.4152 52.0871 28.884 49.1485 28.884H21.2371V53.8587H34.4566V39.1633H52.0862C57.2307 39.1633 60.9612 37.9998 63.2866 35.6761C65.6102 33.3525 66.7799 29.6176 66.7799 24.4758V17.1298C66.7799 11.9863 65.6102 8.25659 63.2866 5.93209H63.2875Z" fill="white"/>
<path d="M85.192 2.44043H71.9724V53.8569H85.192V2.44043Z" fill="white"/>
<path d="M90.3843 53.8577H109.08L125.441 37.4973L141.802 53.8577H160.497L134.789 28.1495L160.497 2.44043H141.802L125.441 18.8018L109.08 2.44043H90.3843L116.093 28.1495L90.3843 53.8577Z" fill="white"/>
<path d="M210.375 16.7731C208.41 13.5415 205.912 10.8698 202.886 8.7433C199.86 6.62028 196.529 5.04415 192.891 4.00096C189.259 2.96213 185.766 2.44141 182.429 2.44141C180.349 2.44141 178.144 2.65598 175.819 3.08773C173.493 3.51425 171.189 4.16843 168.909 5.04764C166.627 5.93034 164.446 7.06425 162.371 8.43627C160.292 9.81614 158.449 11.4498 156.85 13.3522C155.242 15.2475 153.97 17.4264 153.02 19.8852C152.07 22.3528 151.598 25.1177 151.598 28.1871C151.598 30.9425 152.061 33.4825 152.988 35.8096C153.912 38.1367 155.167 40.2597 156.746 42.1778C158.327 44.0993 160.156 45.794 162.235 47.2568C164.31 48.7317 166.488 49.9633 168.774 50.9524C171.054 51.9459 173.37 52.7039 175.718 53.2264C178.066 53.7418 180.3 53.9992 182.428 53.9992C186.85 53.9992 190.937 53.3781 194.688 52.1378C198.438 50.8975 201.701 49.1321 204.481 46.8573C207.258 44.5721 209.427 41.8498 210.984 38.6888C212.54 35.527 213.32 32.0285 213.32 28.1854C213.32 23.8085 212.337 19.9986 210.374 16.7713L210.375 16.7731ZM198.712 33.4432C197.786 35.0944 196.516 36.5274 194.905 37.7521C193.294 38.9741 191.423 39.9344 189.292 40.64C187.163 41.3457 184.876 41.6972 182.434 41.6972C179.991 41.6972 177.698 41.3457 175.568 40.64C173.44 39.9344 171.58 38.9741 169.984 37.7521C168.389 36.5274 167.13 35.0944 166.208 33.4432C165.279 31.7956 164.817 30.0459 164.817 28.1924C164.817 26.3389 165.279 24.6031 166.208 22.9686C167.13 21.3384 168.389 19.9114 169.984 18.6911C171.58 17.4683 173.44 16.5053 175.568 15.8014C177.698 15.0984 179.987 14.7443 182.434 14.7443C184.88 14.7443 187.163 15.0984 189.292 15.8014C191.424 16.5053 193.295 17.4674 194.905 18.6911C196.516 19.9114 197.785 21.3384 198.712 22.9686C199.638 24.6023 200.102 26.3397 200.102 28.1924C200.102 30.045 199.638 31.7956 198.712 33.4432Z" fill="white"/>
<path d="M243.79 12.6787H231.026V25.4412H243.79V12.6787Z" fill="white"/>
<path d="M231.026 25.4414H224.147V32.3198H231.026V25.4414Z" fill="white"/>
<path d="M224.147 32.3208H218.512V37.9607H224.147V32.3208Z" fill="white"/>
<path d="M235.585 32.3208H231.026V36.8808H235.585V32.3208Z" fill="white"/>
<path d="M224.188 17.5273H221.122V20.5959H224.188V17.5273Z" fill="white"/>
<path d="M221.122 20.5952H219.59V22.1286H221.122V20.5952Z" fill="white"/>
<path d="M231.025 4.71875H223.07V12.6788H231.025V4.71875Z" fill="white"/>
<path d="M223.071 2.77441H221.122V4.71862H223.071V2.77441Z" fill="white"/>
<path d="M235.746 0H231.026V4.71879H235.746V0Z" fill="white"/>
<path d="M281.799 5.93209C279.474 3.60671 275.744 2.44141 270.599 2.44141H243.79V12.7233H267.661C270.599 12.7233 272.068 14.1921 272.068 17.1298V24.4758C272.068 27.4152 270.599 28.884 267.661 28.884H239.749V53.8587H252.969V39.1633H270.598C275.743 39.1633 279.473 37.9998 281.799 35.6761C284.122 33.3525 285.292 29.6176 285.292 24.4758V17.1298C285.292 11.9863 284.122 8.25659 281.799 5.93209H281.799Z" fill="white"/>
<path d="M354.439 2.44043H341.22V53.8569H354.439V2.44043Z" fill="white"/>
<path d="M479.849 15.6609L475.394 2.4413V2.44043H456.296H443.076H423.978V2.4413L419.524 15.6609H443.076V53.8577H456.296V15.6609H479.849Z" fill="white"/>
<path d="M401.112 2.44141V32.933L372.851 4.67171L370.621 2.44141H359.632V53.8578H372.851V23.3672L401.112 51.6284L403.342 53.8578H414.332V2.44141H401.112Z" fill="white"/>
<path d="M336.027 24.4748V17.1288C336.027 11.9853 334.858 8.25561 332.534 5.93111C330.209 3.60573 326.479 2.44043 321.334 2.44043H290.484V53.8577H303.704V39.1623H307.117L319.017 53.8577H336.027L324.043 39.0586L324.03 39.0437C327.803 38.694 330.637 37.5705 332.534 35.6743C334.858 33.3507 336.027 29.6166 336.027 24.4748ZM303.704 12.7223H318.396C321.334 12.7223 322.803 14.1912 322.803 17.1288V24.4748C322.803 27.4142 321.334 28.8831 318.396 28.8831H303.704V12.7223Z" fill="white"/>
</g>
<defs>
<clipPath id="clip0_38_35">
<rect width="479.849" height="54" fill="white"/>
</clipPath>
</defs>
</svg>
