<svg width="400" height="45" viewBox="0 0 400 45" fill="none" xmlns="http://www.w3.org/2000/svg">
<g clip-path="url(#clip0_38_2)">
<path d="M21.0719 10.5657H10.4316V21.2011H21.0719V10.5657Z" fill="#EB1768"/>
<path d="M10.4316 21.2011H4.69775V26.9331H10.4316V21.2011Z" fill="#EB1768"/>
<path d="M4.69773 26.9339H0V31.6337H4.69773V26.9339Z" fill="#EB1768"/>
<path d="M14.2321 26.9339H10.4316V30.7339H14.2321V26.9339Z" fill="#EB1768"/>
<path d="M4.73053 14.6063H2.17554V17.1634H4.73053V14.6063Z" fill="#EB1768"/>
<path d="M2.17545 17.1627H0.898682V18.4405H2.17545V17.1627Z" fill="#EB1768"/>
<path d="M10.4316 3.93232H3.80054V10.5657H10.4316V3.93232Z" fill="#EB1768"/>
<path d="M3.79986 2.31215H2.17554V3.93232H3.79986V2.31215Z" fill="#EB1768"/>
<path d="M14.3667 0H10.4316V3.93232H14.3667V0Z" fill="#EB1768"/>
<path d="M52.7561 4.94339C50.8177 3.00557 47.7087 2.03448 43.4196 2.03448H21.0717V10.6027H40.97C43.4196 10.6027 44.644 11.8268 44.644 14.2748V20.3965C44.644 22.846 43.4196 24.07 40.97 24.07H17.7031V44.8822H28.7229V32.6361H43.4189C47.7072 32.6361 50.817 31.6665 52.7554 29.7301C54.6924 27.7937 55.6674 24.6813 55.6674 20.3965V14.2748C55.6674 9.98853 54.6924 6.88047 52.7554 4.94339H52.7561Z" fill="#EB1768"/>
<path d="M71.0156 2.03376H59.9958V44.8808H71.0156V2.03376Z" fill="#3F3390"/>
<path d="M75.344 44.8815H90.9284L104.567 31.2478L118.205 44.8815H133.79L112.359 23.458L133.79 2.03376H118.205L104.567 15.6682L90.9284 2.03376H75.344L96.7743 23.458L75.344 44.8815Z" fill="#3F3390"/>
<path d="M175.368 13.9775C173.729 11.2845 171.647 9.05815 169.125 7.28606C166.602 5.51688 163.826 4.20344 160.793 3.33411C157.765 2.46842 154.853 2.03448 152.072 2.03448C150.338 2.03448 148.5 2.21329 146.562 2.57309C144.623 2.92852 142.702 3.47367 140.802 4.20635C138.9 4.94193 137.081 5.88685 135.352 7.03021C133.619 8.1801 132.082 9.54151 130.75 11.1268C129.409 12.7063 128.349 14.522 127.557 16.571C126.765 18.6273 126.371 20.9314 126.371 23.4893C126.371 25.7854 126.757 27.902 127.53 29.8413C128.3 31.7806 129.346 33.5498 130.663 35.1481C131.981 36.7494 133.505 38.1617 135.238 39.3806C136.968 40.6098 138.784 41.6361 140.689 42.4604C142.59 43.2882 144.521 43.9199 146.478 44.3553C148.435 44.7849 150.297 44.9993 152.071 44.9993C155.757 44.9993 159.164 44.4818 162.291 43.4482C165.417 42.4146 168.137 40.9434 170.455 39.0477C172.769 37.1434 174.577 34.8748 175.875 32.2407C177.172 29.6058 177.822 26.6904 177.822 23.4878C177.822 19.8404 177.003 16.6655 175.367 13.9761L175.368 13.9775ZM165.646 27.8693C164.873 29.2453 163.815 30.4395 162.472 31.46C161.129 32.4784 159.569 33.2786 157.793 33.8667C156.018 34.4547 154.112 34.7476 152.076 34.7476C150.04 34.7476 148.128 34.4547 146.352 33.8667C144.579 33.2786 143.028 32.4784 141.698 31.46C140.368 30.4395 139.318 29.2453 138.55 27.8693C137.776 26.4963 137.391 25.0382 137.391 23.4936C137.391 21.949 137.776 20.5026 138.55 19.1404C139.318 17.7819 140.368 16.5928 141.698 15.5759C143.028 14.5569 144.579 13.7544 146.352 13.1678C148.128 12.582 150.036 12.2869 152.076 12.2869C154.115 12.2869 156.018 12.582 157.793 13.1678C159.57 13.7544 161.13 14.5561 162.472 15.5759C163.815 16.5928 164.873 17.7819 165.646 19.1404C166.417 20.5019 166.804 21.9498 166.804 23.4936C166.804 25.0375 166.417 26.4963 165.646 27.8693Z" fill="#3F3390"/>
<path d="M203.223 10.5657H192.582V21.2011H203.223V10.5657Z" fill="#EB1768"/>
<path d="M192.582 21.2011H186.848V26.9331H192.582V21.2011Z" fill="#EB1768"/>
<path d="M186.848 26.9339H182.151V31.6337H186.848V26.9339Z" fill="#EB1768"/>
<path d="M196.383 26.9339H192.582V30.7339H196.383V26.9339Z" fill="#EB1768"/>
<path d="M186.881 14.6063H184.326V17.1634H186.881V14.6063Z" fill="#EB1768"/>
<path d="M184.326 17.1627H183.049V18.4405H184.326V17.1627Z" fill="#EB1768"/>
<path d="M192.581 3.93232H185.95V10.5657H192.581V3.93232Z" fill="#EB1768"/>
<path d="M185.95 2.31215H184.326V3.93232H185.95V2.31215Z" fill="#EB1768"/>
<path d="M196.517 0H192.582V3.93232H196.517V0Z" fill="#EB1768"/>
<path d="M234.907 4.94339C232.968 3.00557 229.859 2.03448 225.57 2.03448H203.222V10.6027H223.121C225.57 10.6027 226.795 11.8268 226.795 14.2748V20.3965C226.795 22.846 225.57 24.07 223.121 24.07H199.854V44.8822H210.874V32.6361H225.57C229.858 32.6361 232.968 31.6665 234.906 29.7301C236.843 27.7937 237.818 24.6813 237.818 20.3965V14.2748C237.818 9.98853 236.843 6.88047 234.906 4.94339H234.907Z" fill="#EB1768"/>
<path d="M295.459 2.03376H284.439V44.8808H295.459V2.03376Z" fill="#3F3390"/>
<path d="M400 13.0508L396.287 2.03449V2.03376H380.366H369.347H353.426V2.03449L349.714 13.0508H369.347V44.8815H380.366V13.0508H400Z" fill="#3F3390"/>
<path d="M334.366 2.03448V27.4441L310.807 3.89307L308.948 2.03448H299.787V44.8815H310.807V19.4726L334.366 43.0237L336.224 44.8815H345.385V2.03448H334.366Z" fill="#3F3390"/>
<path d="M280.111 20.3957V14.2741C280.111 9.98781 279.136 6.87975 277.199 4.94266C275.261 3.00485 272.151 2.03376 267.863 2.03376H242.146V44.8815H253.166V32.6354H256.011L265.931 44.8815H280.111L270.121 32.5489L270.11 32.5365C273.255 32.245 275.617 31.3088 277.199 29.7286C279.136 27.7923 280.111 24.6806 280.111 20.3957ZM253.166 10.602H265.413C267.863 10.602 269.087 11.826 269.087 14.2741V20.3957C269.087 22.8453 267.863 24.0693 265.413 24.0693H253.166V10.602Z" fill="#3F3390"/>
</g>
<defs>
<clipPath id="clip0_38_2">
<rect width="400" height="45" fill="white"/>
</clipPath>
</defs>
</svg>
